<svg xmlns="http://www.w3.org/2000/svg" width="30.641" height="21.217" viewBox="0 0 30.641 21.217"><defs><style>.a{fill:#0e8515;}</style></defs><path class="a" d="M6.509,0A6.508,6.508,0,0,0,6.29,13.012a18.748,18.748,0,0,1-1.345,6.34.285.285,0,0,0,.379.393c2.385-1.227,7.692-4.9,7.692-13.237A6.509,6.509,0,0,0,6.509,0Z" transform="translate(12.92 21.217) rotate(-173)"/><path class="a" d="M6.509,0A6.508,6.508,0,0,0,6.29,13.012a18.748,18.748,0,0,1-1.345,6.34.285.285,0,0,0,.379.393c2.385-1.227,7.692-4.9,7.692-13.237A6.509,6.509,0,0,0,6.509,0Z" transform="translate(28.23 21.217) rotate(-173)"/></svg>