<?xml version="1.0" standalone="no"?>
<!DOCTYPE svg PUBLIC "-//W3C//DTD SVG 20010904//EN"
 "http://www.w3.org/TR/2001/REC-SVG-20010904/DTD/svg10.dtd">
<svg version="1.0" xmlns="http://www.w3.org/2000/svg"
 width="300.000000pt" height="300.000000pt" viewBox="0 0 300.000000 300.000000"
 preserveAspectRatio="xMidYMid meet">

<g transform="translate(0.000000,300.000000) scale(0.100000,-0.100000)"
fill="#000000" stroke="none">
<path d="M670 2631 c-93 -94 -176 -171 -182 -171 -7 0 -24 12 -37 25 -40 43
-101 27 -101 -27 0 -25 12 -43 58 -90 38 -38 67 -58 82 -58 17 0 76 52 218
193 106 105 200 204 207 218 20 37 0 73 -42 77 -30 3 -46 -10 -203 -167z"/>
<path d="M281 2766 c-49 -18 -111 -74 -132 -120 -16 -35 -19 -67 -19 -216 0
-204 8 -230 84 -297 60 -53 103 -63 279 -63 173 0 226 13 279 67 59 61 68 93
68 255 l0 142 -55 -54 -55 -54 0 -74 c0 -79 -15 -120 -52 -146 -18 -13 -54
-16 -189 -16 -165 0 -168 0 -198 26 -45 37 -54 80 -49 240 5 205 14 214 225
214 l139 0 48 49 c39 39 44 49 31 55 -30 11 -368 5 -404 -8z"/>
<path d="M1183 2756 c-22 -19 -28 -32 -28 -66 0 -34 6 -47 28 -66 l28 -24 800
0 c782 0 799 0 819 20 38 38 38 102 0 140 -20 20 -37 20 -819 20 l-800 0 -28
-24z"/>
<path d="M1179 2444 c-35 -37 -33 -98 4 -130 l28 -24 425 0 425 0 24 25 c34
33 35 102 2 133 -23 22 -26 22 -453 22 l-431 0 -24 -26z"/>
<path d="M281 1826 c-49 -18 -111 -74 -132 -120 -16 -35 -19 -67 -19 -216 0
-204 8 -230 84 -297 61 -54 103 -63 284 -63 169 0 216 11 271 63 64 61 71 90
71 297 0 159 -3 191 -19 226 -22 49 -78 97 -130 113 -52 15 -365 13 -410 -3z
m389 -111 c52 -27 60 -58 60 -220 0 -160 -9 -197 -55 -233 -26 -20 -39 -22
-177 -22 -243 0 -253 11 -253 257 0 162 0 163 26 189 36 35 71 42 232 43 105
1 145 -3 167 -14z"/>
<path d="M1183 1816 c-22 -19 -28 -32 -28 -66 0 -34 6 -47 28 -66 l28 -24 800
0 c782 0 799 0 819 20 39 39 38 102 -2 140 -21 20 -32 20 -819 20 l-798 0 -28
-24z"/>
<path d="M1198 1515 c-38 -21 -53 -73 -34 -119 23 -56 40 -58 493 -54 l403 3
25 26 c43 43 35 118 -15 144 -42 22 -831 22 -872 0z"/>
<path d="M307 900 c-71 -18 -132 -72 -162 -144 -18 -42 -21 -348 -5 -406 14
-52 67 -109 124 -136 48 -22 63 -24 227 -24 174 0 178 0 230 28 42 21 61 40
87 82 l32 54 0 188 c0 205 -6 237 -58 291 -59 62 -91 71 -272 74 -91 1 -182
-2 -203 -7z m385 -139 l33 -29 3 -162 c4 -175 -2 -206 -46 -240 -22 -18 -41
-20 -194 -20 l-170 0 -33 33 c-41 41 -48 82 -44 251 4 116 6 126 29 151 14 15
34 31 45 35 11 5 93 9 182 9 l163 1 32 -29z"/>
<path d="M1213 899 c-32 -9 -63 -50 -63 -84 0 -30 29 -72 57 -84 21 -8 236
-11 816 -9 l789 3 24 28 c26 30 31 75 13 109 -26 48 -26 48 -841 47 -441 0
-777 -5 -795 -10z"/>
<path d="M1183 566 c-22 -19 -28 -32 -28 -66 0 -34 6 -47 28 -66 l28 -24 425
0 425 0 24 25 c36 35 35 105 -1 134 -26 21 -37 21 -450 21 l-423 0 -28 -24z"/>
</g>
</svg>
