<svg viewBox="0 0 512 512" version="1.1" xmlns="http://www.w3.org/2000/svg" desc="Created on https://convert2svg.com/" ><path fill="rgb(0,0,0)" stroke="rgb(0,0,0)" stroke-width="1" opacity="0.8392156862745098" d="M 23.5 0 L 26 0.5 L 23.5 1 L 23.5 0 Z " /><path fill="rgb(0,0,0)" stroke="rgb(0,0,0)" stroke-width="1" opacity="0.8392156862745098" d="M 119.5 0 L 122 0.5 L 119.5 1 L 119.5 0 Z " /><path fill="rgb(0,0,0)" stroke="rgb(0,0,0)" stroke-width="1" opacity="0.8392156862745098" d="M 203.5 0 L 206 0.5 L 203.5 1 L 203.5 0 Z " /><path fill="rgb(0,0,0)" stroke="rgb(0,0,0)" stroke-width="1" opacity="0.8392156862745098" d="M 486.5 0 L 489 0.5 L 486.5 1 L 486.5 0 Z " /><path fill="rgb(0,0,0)" stroke="rgb(0,0,0)" stroke-width="1" opacity="0.8392156862745098" d="M 19.5 17 L 17.5 20 L 19.5 17 Z " /><path fill="rgb(0,0,0)" stroke="rgb(0,0,0)" stroke-width="1" opacity="0.8392156862745098" d="M 125.5 17 L 127.5 20 L 125.5 17 Z " /><path fill="rgb(0,0,0)" stroke="rgb(0,0,0)" stroke-width="1" opacity="0.8392156862745098" d="M 199.5 17 L 197.5 20 L 199.5 17 Z " /><path fill="rgb(0,0,0)" stroke="rgb(0,0,0)" stroke-width="1" opacity="0.8392156862745098" d="M 492.5 17 L 494.5 20 L 492.5 17 Z " /><path fill="rgb(0,0,0)" stroke="rgb(0,0,0)" stroke-width="1" opacity="0.8392156862745098" d="M 0.5 23 L 1 25.5 L 0 25.5 L 0.5 23 Z " /><path fill="rgb(0,0,0)" stroke="rgb(0,0,0)" stroke-width="1" opacity="0.8392156862745098" d="M 180.5 23 L 181 25.5 L 180 25.5 L 180.5 23 Z " /><path fill="rgb(0,0,0)" stroke="rgb(0,0,0)" stroke-width="1" opacity="0.8392156862745098" d="M 33.5 31 L 31.5 34 L 33.5 31 Z " /><path fill="rgb(0,0,0)" stroke="rgb(0,0,0)" stroke-width="1" opacity="0.8392156862745098" d="M 111.5 31 L 113.5 34 L 111.5 31 Z " /><path fill="rgb(0,0,0)" stroke="rgb(0,0,0)" stroke-width="1" opacity="0.8392156862745098" d="M 228.5 41 L 227.5 43 L 228.5 41 Z " /><path fill="rgb(0,0,0)" stroke="rgb(0,0,0)" stroke-width="1" opacity="0.8392156862745098" d="M 463.5 41 L 464.5 43 L 463.5 41 Z " /><path fill="rgb(0,0,0)" stroke="rgb(0,0,0)" stroke-width="1" opacity="0.8392156862745098" d="M 225.5 46 L 226 48.5 L 225 48.5 L 225.5 46 Z " /><path fill="rgb(0,0,0)" stroke="rgb(0,0,0)" stroke-width="1" opacity="0.8392156862745098" d="M 466.5 46 L 467 48.5 L 466 48.5 L 466.5 46 Z " /><path fill="rgb(0,0,0)" stroke="rgb(0,0,0)" stroke-width="1" opacity="0.8392156862745098" d="M 227.5 52 L 228.5 54 L 227.5 52 Z " /><path fill="rgb(0,0,0)" stroke="rgb(0,0,0)" stroke-width="1" opacity="0.8392156862745098" d="M 464.5 52 L 463.5 54 L 464.5 52 Z " /><path fill="rgb(0,0,0)" stroke="rgb(0,0,0)" stroke-width="1" opacity="0.8392156862745098" d="M 228.5 91 L 227.5 93 L 228.5 91 Z " /><path fill="rgb(0,0,0)" stroke="rgb(0,0,0)" stroke-width="1" opacity="0.8392156862745098" d="M 225.5 96 L 226 98.5 L 225 98.5 L 225.5 96 Z " /><path fill="rgb(0,0,0)" stroke="rgb(0,0,0)" stroke-width="1" opacity="0.8392156862745098" d="M 227.5 102 L 228.5 104 L 227.5 102 Z " /><path fill="rgb(0,0,0)" stroke="rgb(0,0,0)" stroke-width="1" opacity="0.8392156862745098" d="M 31.5 111 L 33.5 114 L 31.5 111 Z " /><path fill="rgb(0,0,0)" stroke="rgb(0,0,0)" stroke-width="1" opacity="0.8392156862745098" d="M 113.5 111 L 111.5 114 L 113.5 111 Z " /><path fill="rgb(0,0,0)" stroke="rgb(0,0,0)" stroke-width="1" opacity="0.8392156862745098" d="M 0.5 119 L 1 121.5 L 0 121.5 L 0.5 119 Z " /><path fill="rgb(0,0,0)" stroke="rgb(0,0,0)" stroke-width="1" opacity="0.8392156862745098" d="M 180.5 119 L 181 121.5 L 180 121.5 L 180.5 119 Z " /><path fill="rgb(0,0,0)" stroke="rgb(0,0,0)" stroke-width="1" opacity="0.8392156862745098" d="M 17.5 125 L 19.5 128 L 17.5 125 Z " /><path fill="rgb(0,0,0)" stroke="rgb(0,0,0)" stroke-width="1" opacity="0.8392156862745098" d="M 127.5 125 L 125.5 128 L 127.5 125 Z " /><path fill="rgb(0,0,0)" stroke="rgb(0,0,0)" stroke-width="1" opacity="0.8392156862745098" d="M 197.5 125 L 199.5 128 L 197.5 125 Z " /><path fill="rgb(0,0,0)" stroke="rgb(0,0,0)" stroke-width="1" opacity="0.8392156862745098" d="M 494.5 125 L 492.5 128 L 494.5 125 Z " /><path fill="rgb(0,0,0)" stroke="rgb(0,0,0)" stroke-width="1" opacity="0.8392156862745098" d="M 391.5 131 L 392.5 133 L 391.5 131 Z " /><path fill="rgb(0,0,0)" stroke="rgb(0,0,0)" stroke-width="1" opacity="0.8392156862745098" d="M 394.5 136 L 395 138.5 L 394 138.5 L 394.5 136 Z " /><path fill="rgb(0,0,0)" stroke="rgb(0,0,0)" stroke-width="1" opacity="0.8392156862745098" d="M 392.5 142 L 391.5 144 L 392.5 142 Z " /><path fill="rgb(0,0,0)" stroke="rgb(0,0,0)" stroke-width="1" opacity="0.8392156862745098" d="M 23.5 144 L 26 144.5 L 23.5 145 L 23.5 144 Z " /><path fill="rgb(0,0,0)" stroke="rgb(0,0,0)" stroke-width="1" opacity="0.8392156862745098" d="M 203.5 144 L 206 144.5 L 203.5 145 L 203.5 144 Z " /><path fill="rgb(0,0,0)" stroke="rgb(0,0,0)" stroke-width="1" opacity="0.8392156862745098" d="M 9.5 190 L 6.5 194 L 9.5 190 Z " /><path fill="rgb(0,0,0)" stroke="rgb(0,0,0)" stroke-width="1" opacity="0.8392156862745098" d="M 135.5 190 L 137.5 193 L 135.5 190 Z " /><path fill="rgb(0,0,0)" stroke="rgb(0,0,0)" stroke-width="1" opacity="0.8392156862745098" d="M 189.5 190 L 186.5 194 L 189.5 190 Z " /><path fill="rgb(0,0,0)" stroke="rgb(0,0,0)" stroke-width="1" opacity="0.8392156862745098" d="M 502.5 190 L 504.5 193 L 502.5 190 Z " /><path fill="rgb(0,0,0)" stroke="rgb(0,0,0)" stroke-width="1" opacity="0.8392156862745098" d="M 350.5 275 L 351.5 277 L 350.5 275 Z " /><path fill="rgb(0,0,0)" stroke="rgb(0,0,0)" stroke-width="1" opacity="0.8392156862745098" d="M 351.5 285 L 350.5 287 L 351.5 285 Z " /><path fill="rgb(0,0,0)" stroke="rgb(0,0,0)" stroke-width="1" opacity="0.8392156862745098" d="M 6.5 318 L 9.5 322 L 6.5 318 Z " /><path fill="rgb(0,0,0)" stroke="rgb(0,0,0)" stroke-width="1" opacity="0.8392156862745098" d="M 186.5 318 L 189.5 322 L 186.5 318 Z " /><path fill="rgb(0,0,0)" stroke="rgb(0,0,0)" stroke-width="1" opacity="0.8392156862745098" d="M 137.5 319 L 135.5 322 L 137.5 319 Z " /><path fill="rgb(0,0,0)" stroke="rgb(0,0,0)" stroke-width="1" opacity="0.8392156862745098" d="M 504.5 319 L 502.5 322 L 504.5 319 Z " /><path fill="rgb(0,0,0)" stroke="rgb(0,0,0)" stroke-width="1" opacity="0.8392156862745098" d="M 23.5 367 L 26 367.5 L 23.5 368 L 23.5 367 Z " /><path fill="rgb(0,0,0)" stroke="rgb(0,0,0)" stroke-width="1" opacity="0.8392156862745098" d="M 119.5 367 L 122 367.5 L 119.5 368 L 119.5 367 Z " /><path fill="rgb(0,0,0)" stroke="rgb(0,0,0)" stroke-width="1" opacity="0.8392156862745098" d="M 203.5 367 L 206 367.5 L 203.5 368 L 203.5 367 Z " /><path fill="rgb(0,0,0)" stroke="rgb(0,0,0)" stroke-width="1" opacity="0.8392156862745098" d="M 486.5 367 L 489 367.5 L 486.5 368 L 486.5 367 Z " /><path fill="rgb(0,0,0)" stroke="rgb(0,0,0)" stroke-width="1" opacity="0.8392156862745098" d="M 83.5 368 L 85.5 371 L 83.5 368 Z " /><path fill="rgb(0,0,0)" stroke="rgb(0,0,0)" stroke-width="1" opacity="0.8392156862745098" d="M 103.5 368 L 101.5 371 L 103.5 368 Z " /><path fill="rgb(0,0,0)" stroke="rgb(0,0,0)" stroke-width="1" opacity="0.8392156862745098" d="M 85.5 378 L 83.5 381 L 85.5 378 Z " /><path fill="rgb(0,0,0)" stroke="rgb(0,0,0)" stroke-width="1" opacity="0.8392156862745098" d="M 101.5 378 L 103.5 381 L 101.5 378 Z " /><path fill="rgb(0,0,0)" stroke="rgb(0,0,0)" stroke-width="1" opacity="0.8392156862745098" d="M 19.5 384 L 17.5 387 L 19.5 384 Z " /><path fill="rgb(0,0,0)" stroke="rgb(0,0,0)" stroke-width="1" opacity="0.8392156862745098" d="M 125.5 384 L 127.5 387 L 125.5 384 Z " /><path fill="rgb(0,0,0)" stroke="rgb(0,0,0)" stroke-width="1" opacity="0.8392156862745098" d="M 199.5 384 L 197.5 387 L 199.5 384 Z " /><path fill="rgb(0,0,0)" stroke="rgb(0,0,0)" stroke-width="1" opacity="0.8392156862745098" d="M 492.5 384 L 494.5 387 L 492.5 384 Z " /><path fill="rgb(0,0,0)" stroke="rgb(0,0,0)" stroke-width="1" opacity="0.8392156862745098" d="M 0.5 390 L 1 392.5 L 0 392.5 L 0.5 390 Z " /><path fill="rgb(0,0,0)" stroke="rgb(0,0,0)" stroke-width="1" opacity="0.8392156862745098" d="M 180.5 390 L 181 392.5 L 180 392.5 L 180.5 390 Z " /><path fill="rgb(0,0,0)" stroke="rgb(0,0,0)" stroke-width="1" opacity="0.8392156862745098" d="M 33.5 398 L 31.5 401 L 33.5 398 Z " /><path fill="rgb(0,0,0)" stroke="rgb(0,0,0)" stroke-width="1" opacity="0.8392156862745098" d="M 111.5 398 L 113.5 401 L 111.5 398 Z " /><path fill="rgb(0,0,0)" stroke="rgb(0,0,0)" stroke-width="1" opacity="0.8392156862745098" d="M 228.5 408 L 227.5 410 L 228.5 408 Z " /><path fill="rgb(0,0,0)" stroke="rgb(0,0,0)" stroke-width="1" opacity="0.8392156862745098" d="M 463.5 408 L 464.5 410 L 463.5 408 Z " /><path fill="rgb(0,0,0)" stroke="rgb(0,0,0)" stroke-width="1" opacity="0.8392156862745098" d="M 225.5 413 L 226 415.5 L 225 415.5 L 225.5 413 Z " /><path fill="rgb(0,0,0)" stroke="rgb(0,0,0)" stroke-width="1" opacity="0.8392156862745098" d="M 466.5 413 L 467 415.5 L 466 415.5 L 466.5 413 Z " /><path fill="rgb(0,0,0)" stroke="rgb(0,0,0)" stroke-width="1" opacity="0.8392156862745098" d="M 227.5 419 L 228.5 421 L 227.5 419 Z " /><path fill="rgb(0,0,0)" stroke="rgb(0,0,0)" stroke-width="1" opacity="0.8392156862745098" d="M 464.5 419 L 463.5 421 L 464.5 419 Z " /><path fill="rgb(0,0,0)" stroke="rgb(0,0,0)" stroke-width="1" opacity="0.8392156862745098" d="M 228.5 458 L 227.5 460 L 228.5 458 Z " /><path fill="rgb(0,0,0)" stroke="rgb(0,0,0)" stroke-width="1" opacity="0.8392156862745098" d="M 225.5 463 L 226 465.5 L 225 465.5 L 225.5 463 Z " /><path fill="rgb(0,0,0)" stroke="rgb(0,0,0)" stroke-width="1" opacity="0.8392156862745098" d="M 227.5 469 L 228.5 471 L 227.5 469 Z " /><path fill="rgb(0,0,0)" stroke="rgb(0,0,0)" stroke-width="1" opacity="0.8392156862745098" d="M 31.5 478 L 33.5 481 L 31.5 478 Z " /><path fill="rgb(0,0,0)" stroke="rgb(0,0,0)" stroke-width="1" opacity="0.8392156862745098" d="M 113.5 478 L 111.5 481 L 113.5 478 Z " /><path fill="rgb(0,0,0)" stroke="rgb(0,0,0)" stroke-width="1" opacity="0.8392156862745098" d="M 0.5 486 L 1 488.5 L 0 488.5 L 0.5 486 Z " /><path fill="rgb(0,0,0)" stroke="rgb(0,0,0)" stroke-width="1" opacity="0.8392156862745098" d="M 180.5 486 L 181 488.5 L 180 488.5 L 180.5 486 Z " /><path fill="rgb(0,0,0)" stroke="rgb(0,0,0)" stroke-width="1" opacity="0.8392156862745098" d="M 17.5 492 L 19.5 495 L 17.5 492 Z " /><path fill="rgb(0,0,0)" stroke="rgb(0,0,0)" stroke-width="1" opacity="0.8392156862745098" d="M 127.5 492 L 125.5 495 L 127.5 492 Z " /><path fill="rgb(0,0,0)" stroke="rgb(0,0,0)" stroke-width="1" opacity="0.8392156862745098" d="M 197.5 492 L 199.5 495 L 197.5 492 Z " /><path fill="rgb(0,0,0)" stroke="rgb(0,0,0)" stroke-width="1" opacity="0.8392156862745098" d="M 494.5 492 L 492.5 495 L 494.5 492 Z " /><path fill="rgb(0,0,0)" stroke="rgb(0,0,0)" stroke-width="1" opacity="0.8392156862745098" d="M 23.5 511 L 26 511.5 L 23.5 512 L 23.5 511 Z " /><path fill="rgb(0,0,0)" stroke="rgb(0,0,0)" stroke-width="1" opacity="0.8392156862745098" d="M 203.5 511 L 206 511.5 L 203.5 512 L 203.5 511 Z " /><path fill="rgb(0,0,0)" stroke="rgb(0,0,0)" stroke-width="1" opacity="0" d="M 0 0 L 21 0.5 Q 10.2 2.7 5 10.5 L 0.5 21 L 0 0 Z " /><path fill="rgb(0,0,0)" stroke="rgb(0,0,0)" stroke-width="1" opacity="0" d="M 124.5 0 L 201 0.5 Q 190.2 2.7 185 10.5 L 180 21.5 L 180 123.5 Q 182.6 134.4 190.5 140 L 201.5 145 L 390.5 145 Q 396.5 143.5 395 134.5 L 390.5 130 L 207.5 130 L 198 125.5 L 195 117.5 L 195 27.5 L 199.5 18 L 207.5 15 L 484.5 15 L 494 19.5 L 497 27.5 L 497 117.5 Q 495.9 124.9 490.5 128 L 484.5 130 L 412.5 130 L 409 132.5 L 407 137.5 L 410.5 144 L 412.5 145 L 490.5 145 Q 501.4 142.4 507 134.5 L 511.5 124 L 512 203.5 L 511 203.5 Q 508.7 192.8 500.5 188 L 488.5 183 L 203.5 183 Q 190.2 185.7 184 195.5 L 180 204.5 L 180 307.5 Q 183.1 318.4 191.5 324 L 203.5 329 L 488.5 329 Q 501.9 326.4 508 316.5 L 511.5 308 L 512 387.5 L 511 387.5 Q 509.3 376.7 501.5 372 L 490.5 367 L 201.5 367 Q 190.6 369.6 185 377.5 L 180 388.5 L 180 490.5 Q 182.6 501.4 190.5 507 L 201 511.5 L 124.5 512 L 124.5 511 Q 135.3 509.3 140 501.5 L 145 490.5 L 145 388.5 Q 142.4 377.6 134.5 372 L 123.5 367 L 104.5 367 L 101 369.5 L 100 377.5 L 102.5 381 L 104.5 382 L 117.5 382 L 127 386.5 L 130 394.5 L 130 484.5 Q 128.9 491.9 123.5 495 L 117.5 497 L 27.5 497 L 18 492.5 L 15 484.5 L 15 394.5 L 19.5 385 L 27.5 382 L 82.5 382 L 86 379.5 L 87 371.5 L 84.5 368 L 82.5 367 L 21.5 367 Q 10.6 369.6 5 377.5 L 0.5 388 L 0 308.5 L 1 308.5 Q 3.3 319.2 11.5 324 L 23.5 329 L 121.5 329 Q 134.8 326.4 141 316.5 L 145 307.5 L 145 204.5 Q 141.9 193.6 133.5 188 L 121.5 183 L 23.5 183 Q 10.2 185.7 4 195.5 L 0.5 204 L 0 124.5 L 1 124.5 Q 2.7 135.3 10.5 140 L 21.5 145 L 123.5 145 Q 134.4 142.4 140 134.5 L 145 123.5 L 145 21.5 Q 142.4 10.6 134.5 5 L 127.5 1 L 124.5 1 L 124.5 0 Z M 230 40 Q 224 42 225 51 L 230 55 L 463 55 Q 469 54 467 45 L 463 40 L 230 40 Z M 230 90 Q 224 92 225 101 L 230 105 L 350 105 L 354 100 L 353 94 L 350 90 L 230 90 Z M 35 397 L 33 398 L 30 402 L 30 478 L 31 480 L 35 482 L 111 482 L 113 481 L 115 478 L 115 402 L 114 400 L 111 397 L 35 397 Z " /><path fill="rgb(0,0,0)" stroke="rgb(0,0,0)" stroke-width="1" opacity="0" d="M 491.5 0 L 512 0 L 512 20.5 L 511 20.5 Q 509.3 9.7 501.5 5 L 494.5 1 L 491.5 1 L 491.5 0 Z " /><path fill="rgb(0,0,0)" stroke="rgb(0,0,0)" stroke-width="1" opacity="0" d="M 27.5 15 L 117.5 15 L 127 19.5 L 130 27.5 L 130 117.5 Q 128.9 124.9 123.5 128 L 117.5 130 L 27.5 130 L 18 125.5 L 15 117.5 L 15 27.5 L 19.5 18 L 27.5 15 Z M 35 30 L 33 31 L 30 35 L 30 111 L 31 113 L 35 115 L 111 115 L 113 114 L 115 111 L 115 35 L 114 33 L 111 30 L 35 30 Z " /><path fill="rgb(0,0,0)" stroke="rgb(0,0,0)" stroke-width="1" opacity="0" d="M 45 45 L 100 45 L 100 100 L 45 100 L 45 45 Z " /><path fill="rgb(0,0,0)" stroke="rgb(0,0,0)" stroke-width="1" opacity="0" d="M 24.5 199 L 120.5 199 L 128 204.5 L 130 210.5 L 130 301.5 Q 129.1 308.1 124.5 311 L 120.5 313 L 24.5 313 L 17 307.5 L 15 301.5 L 15 210.5 Q 15.9 203.9 20.5 201 L 24.5 199 Z M 36 213 L 34 214 L 30 218 L 30 295 L 36 299 L 110 299 L 112 298 L 115 295 L 115 218 L 110 213 L 36 213 Z " /><path fill="rgb(0,0,0)" stroke="rgb(0,0,0)" stroke-width="1" opacity="0" d="M 204.5 199 L 487.5 199 L 495 204.5 L 497 210.5 L 497 301.5 Q 496.1 308.1 491.5 311 L 487.5 313 L 204.5 313 L 197 307.5 L 195 301.5 L 195 210.5 Q 195.9 203.9 200.5 201 L 204.5 199 Z M 231 223 L 229 224 L 225 229 L 226 236 L 231 239 L 462 239 L 464 238 L 467 234 L 466 227 L 462 223 L 231 223 Z M 231 273 L 229 274 L 225 279 L 226 286 L 231 289 L 348 289 L 352 287 L 354 283 L 352 275 L 348 273 L 231 273 Z " /><path fill="rgb(0,0,0)" stroke="rgb(0,0,0)" stroke-width="1" opacity="0" d="M 45 229 L 100 229 L 100 283 L 45 283 L 45 229 Z " /><path fill="rgb(0,0,0)" stroke="rgb(0,0,0)" stroke-width="1" opacity="0" d="M 207.5 382 L 484.5 382 L 494 386.5 L 497 394.5 L 497 484.5 Q 495.9 491.9 490.5 495 L 484.5 497 L 207.5 497 L 198 492.5 L 195 484.5 L 195 394.5 L 199.5 385 L 207.5 382 Z M 230 407 Q 224 409 225 418 L 230 422 L 463 422 Q 469 421 467 412 L 463 407 L 230 407 Z M 230 457 Q 224 459 225 468 L 230 472 L 350 472 L 354 467 L 353 461 L 350 457 L 230 457 Z " /><path fill="rgb(0,0,0)" stroke="rgb(0,0,0)" stroke-width="1" opacity="0" d="M 45 412 L 100 412 L 100 467 L 45 467 L 45 412 Z " /><path fill="rgb(0,0,0)" stroke="rgb(0,0,0)" stroke-width="1" opacity="0" d="M 0.5 491 Q 2.7 501.8 10.5 507 L 21 511.5 L 0 512 L 0.5 491 Z " /><path fill="rgb(0,0,0)" stroke="rgb(0,0,0)" stroke-width="1" opacity="0" d="M 511.5 491 L 512 512 L 491 511.5 Q 501.8 509.3 507 501.5 L 511.5 491 Z " /><path fill="rgb(0,0,0)" stroke="rgb(0,0,0)" stroke-width="1" opacity="0.996078431372549" d="M 10.5 6 L 6.5 11 L 10.5 6 Z " /><path fill="rgb(0,0,0)" stroke="rgb(0,0,0)" stroke-width="1" opacity="0.996078431372549" d="M 134.5 6 L 138.5 11 L 134.5 6 Z " /><path fill="rgb(0,0,0)" stroke="rgb(0,0,0)" stroke-width="1" opacity="0.996078431372549" d="M 190.5 6 L 186.5 11 L 190.5 6 Z " /><path fill="rgb(0,0,0)" stroke="rgb(0,0,0)" stroke-width="1" opacity="0.996078431372549" d="M 501.5 6 L 505.5 11 L 501.5 6 Z " /><path fill="rgb(0,0,0)" stroke="rgb(0,0,0)" stroke-width="1" opacity="0.996078431372549" d="M 6.5 134 L 10.5 139 L 6.5 134 Z " /><path fill="rgb(0,0,0)" stroke="rgb(0,0,0)" stroke-width="1" opacity="0.996078431372549" d="M 138.5 134 L 134.5 139 L 138.5 134 Z " /><path fill="rgb(0,0,0)" stroke="rgb(0,0,0)" stroke-width="1" opacity="0.996078431372549" d="M 186.5 134 L 190.5 139 L 186.5 134 Z " /><path fill="rgb(0,0,0)" stroke="rgb(0,0,0)" stroke-width="1" opacity="0.996078431372549" d="M 505.5 134 L 501.5 139 L 505.5 134 Z " /><path fill="rgb(0,0,0)" stroke="rgb(0,0,0)" stroke-width="1" opacity="0.996078431372549" d="M 228.5 225 L 227.5 227 L 228.5 225 Z " /><path fill="rgb(0,0,0)" stroke="rgb(0,0,0)" stroke-width="1" opacity="0.996078431372549" d="M 463.5 225 L 464.5 227 L 463.5 225 Z " /><path fill="rgb(0,0,0)" stroke="rgb(0,0,0)" stroke-width="1" opacity="0.996078431372549" d="M 227.5 235 L 228.5 237 L 227.5 235 Z " /><path fill="rgb(0,0,0)" stroke="rgb(0,0,0)" stroke-width="1" opacity="0.996078431372549" d="M 464.5 235 L 463.5 237 L 464.5 235 Z " /><path fill="rgb(0,0,0)" stroke="rgb(0,0,0)" stroke-width="1" opacity="0.996078431372549" d="M 228.5 275 L 227.5 277 L 228.5 275 Z " /><path fill="rgb(0,0,0)" stroke="rgb(0,0,0)" stroke-width="1" opacity="0.996078431372549" d="M 227.5 285 L 228.5 287 L 227.5 285 Z " /><path fill="rgb(0,0,0)" stroke="rgb(0,0,0)" stroke-width="1" opacity="0.996078431372549" d="M 11.5 322 L 12.5 324 L 11.5 322 Z " /><path fill="rgb(0,0,0)" stroke="rgb(0,0,0)" stroke-width="1" opacity="0.996078431372549" d="M 133.5 322 L 132.5 324 L 133.5 322 Z " /><path fill="rgb(0,0,0)" stroke="rgb(0,0,0)" stroke-width="1" opacity="0.996078431372549" d="M 191.5 322 L 192.5 324 L 191.5 322 Z " /><path fill="rgb(0,0,0)" stroke="rgb(0,0,0)" stroke-width="1" opacity="0.996078431372549" d="M 500.5 322 L 499.5 324 L 500.5 322 Z " /><path fill="rgb(0,0,0)" stroke="rgb(0,0,0)" stroke-width="1" opacity="0.996078431372549" d="M 10.5 373 L 6.5 378 L 10.5 373 Z " /><path fill="rgb(0,0,0)" stroke="rgb(0,0,0)" stroke-width="1" opacity="0.996078431372549" d="M 134.5 373 L 138.5 378 L 134.5 373 Z " /><path fill="rgb(0,0,0)" stroke="rgb(0,0,0)" stroke-width="1" opacity="0.996078431372549" d="M 190.5 373 L 186.5 378 L 190.5 373 Z " /><path fill="rgb(0,0,0)" stroke="rgb(0,0,0)" stroke-width="1" opacity="0.996078431372549" d="M 501.5 373 L 505.5 378 L 501.5 373 Z " /><path fill="rgb(0,0,0)" stroke="rgb(0,0,0)" stroke-width="1" opacity="0.996078431372549" d="M 6.5 501 L 10.5 506 L 6.5 501 Z " /><path fill="rgb(0,0,0)" stroke="rgb(0,0,0)" stroke-width="1" opacity="0.996078431372549" d="M 138.5 501 L 134.5 506 L 138.5 501 Z " /><path fill="rgb(0,0,0)" stroke="rgb(0,0,0)" stroke-width="1" opacity="0.996078431372549" d="M 186.5 501 L 190.5 506 L 186.5 501 Z " /><path fill="rgb(0,0,0)" stroke="rgb(0,0,0)" stroke-width="1" opacity="0.996078431372549" d="M 505.5 501 L 501.5 506 L 505.5 501 Z " /><path fill="rgb(0,0,0)" stroke="rgb(0,0,0)" stroke-width="1" opacity="1" d="M 27.5 0 L 117.5 0 L 129.5 3 L 140 12.5 L 144 21.5 Q 142.5 27 145 28.5 L 145 116.5 Q 142.5 118 144 123.5 L 140 132.5 L 132.5 140 L 129.5 142 L 117.5 145 L 27.5 145 L 15.5 142 L 5 132.5 L 1 123.5 Q 2.5 118 0 116.5 L 0 28.5 L 3 15.5 L 12.5 5 L 15.5 3 L 27.5 0 Z M 23 15 L 21 16 L 15 23 L 15 123 L 16 125 L 23 130 L 123 130 L 125 129 L 130 123 L 130 23 L 129 21 L 123 15 L 23 15 Z " /><path fill="rgb(0,0,0)" stroke="rgb(0,0,0)" stroke-width="1" opacity="1" d="M 207.5 0 L 484.5 0 L 496.5 3 L 507 12.5 L 511 21.5 Q 509.5 27 512 28.5 L 512 116.5 Q 509.5 118 511 123.5 L 507 132.5 L 499.5 140 L 496.5 142 L 484.5 145 L 416.5 145 L 412.5 144 L 409 140.5 L 408 136.5 L 412.5 131 L 415.5 130 L 489.5 130 L 496 124.5 L 497 122.5 L 497 22.5 L 491.5 16 L 489.5 15 L 202.5 15 L 196 20.5 L 195 22.5 L 195 122.5 L 200.5 129 L 202.5 130 L 386.5 130 L 390.5 131 L 394 134.5 Q 395.1 142.1 390.5 144 L 386.5 145 L 207.5 145 L 195.5 142 L 185 132.5 L 181 123.5 Q 182.5 118 180 116.5 L 180 28.5 L 183 15.5 L 192.5 5 L 195.5 3 L 207.5 0 Z " /><path fill="rgb(0,0,0)" stroke="rgb(0,0,0)" stroke-width="1" opacity="1" d="M 38.5 30 L 106.5 30 L 110.5 31 L 114 34.5 L 115 38.5 L 115 106.5 L 114 110.5 L 110.5 114 L 106.5 115 L 38.5 115 L 34.5 114 L 31 110.5 L 30 106.5 L 30 38.5 L 31 34.5 L 34.5 31 L 38.5 30 Z M 45 45 L 45 100 L 100 100 L 100 45 L 45 45 Z " /><path fill="rgb(0,0,0)" stroke="rgb(0,0,0)" stroke-width="1" opacity="1" d="M 233.5 40 L 458.5 40 L 462.5 41 L 465 43.5 L 466 49.5 L 462.5 54 L 458.5 55 L 233.5 55 L 229.5 54 L 227 51.5 L 226 45.5 L 229.5 41 L 233.5 40 Z " /><path fill="rgb(0,0,0)" stroke="rgb(0,0,0)" stroke-width="1" opacity="1" d="M 233.5 90 L 345.5 90 L 352 93.5 L 353 99.5 L 350.5 103 L 345.5 105 L 233.5 105 L 229.5 104 L 227 101.5 L 226 95.5 L 229.5 91 L 233.5 90 Z " /><path fill="rgb(0,0,0)" stroke="rgb(0,0,0)" stroke-width="1" opacity="1" d="M 23.5 184 L 121.5 184 Q 133.3 186.2 139 194.5 L 143 201.5 L 145 211.5 L 145 300.5 L 143 310.5 L 134.5 322 L 121.5 328 L 23.5 328 Q 12.3 325.3 6 317.5 L 2 310.5 L 0 300.5 L 0 211.5 Q 2.5 210 1 204.5 L 4 197.5 L 11.5 189 L 23.5 184 Z M 25 198 L 18 201 L 15 207 L 15 306 L 18 311 L 25 314 L 121 314 L 127 311 L 130 306 L 130 207 L 127 201 L 121 198 L 25 198 Z " /><path fill="rgb(0,0,0)" stroke="rgb(0,0,0)" stroke-width="1" opacity="1" d="M 203.5 184 L 488.5 184 Q 500.3 186.2 506 194.5 L 510 201.5 L 512 211.5 L 512 300.5 L 510 310.5 L 501.5 322 L 488.5 328 L 203.5 328 Q 192.3 325.3 186 317.5 L 182 310.5 L 180 300.5 L 180 211.5 Q 182.5 210 181 204.5 L 184 197.5 L 191.5 189 L 203.5 184 Z M 205 198 L 198 201 L 195 207 L 195 306 L 198 311 L 205 314 L 488 314 L 494 311 L 497 306 L 497 207 L 494 201 L 488 198 L 205 198 Z " /><path fill="rgb(0,0,0)" stroke="rgb(0,0,0)" stroke-width="1" opacity="1" d="M 35.5 214 L 109.5 214 L 113 216.5 L 115 221.5 L 115 290.5 L 111.5 297 L 109.5 298 L 35.5 298 L 32 295.5 L 30 290.5 L 30 221.5 L 33.5 215 L 35.5 214 Z M 45 228 L 45 284 L 100 284 L 100 228 L 45 228 Z " /><path fill="rgb(0,0,0)" stroke="rgb(0,0,0)" stroke-width="1" opacity="1" d="M 230.5 224 L 461.5 224 L 466 228.5 L 466 233.5 L 461.5 238 L 230.5 238 L 226 233.5 L 226 228.5 L 230.5 224 Z " /><path fill="rgb(0,0,0)" stroke="rgb(0,0,0)" stroke-width="1" opacity="1" d="M 230.5 274 L 347.5 274 L 352 277.5 L 353 282.5 L 349.5 287 L 347.5 288 L 230.5 288 L 226 283.5 L 226 278.5 L 230.5 274 Z " /><path fill="rgb(0,0,0)" stroke="rgb(0,0,0)" stroke-width="1" opacity="1" d="M 27.5 367 L 78.5 367 L 82.5 368 L 86 371.5 Q 87.5 379.5 82.5 381 L 78.5 382 L 22.5 382 L 16 387.5 L 15 389.5 L 15 489.5 L 20.5 496 L 22.5 497 L 122.5 497 L 129 491.5 L 130 489.5 L 130 389.5 L 124.5 383 L 122.5 382 L 108.5 382 L 104.5 381 L 101 377.5 Q 99.5 369.5 104.5 368 L 117.5 367 L 129.5 370 L 140 379.5 L 144 388.5 Q 142.5 394 145 395.5 L 145 483.5 Q 142.5 485 144 490.5 L 140 499.5 L 132.5 507 L 129.5 509 L 117.5 512 L 27.5 512 L 15.5 509 L 5 499.5 L 1 490.5 Q 2.5 485 0 483.5 L 0 395.5 L 3 382.5 L 12.5 372 L 15.5 370 L 27.5 367 Z " /><path fill="rgb(0,0,0)" stroke="rgb(0,0,0)" stroke-width="1" opacity="1" d="M 207.5 367 L 484.5 367 L 496.5 370 L 507 379.5 L 511 388.5 Q 509.5 394 512 395.5 L 512 483.5 Q 509.5 485 511 490.5 L 507 499.5 L 499.5 507 L 496.5 509 L 484.5 512 L 207.5 512 L 195.5 509 L 185 499.5 L 181 490.5 Q 182.5 485 180 483.5 L 180 395.5 L 183 382.5 L 192.5 372 L 195.5 370 L 207.5 367 Z M 203 382 L 201 383 L 195 390 L 195 490 L 196 492 L 203 497 L 490 497 L 492 496 L 497 490 L 497 390 L 496 388 L 490 382 L 203 382 Z " /><path fill="rgb(0,0,0)" stroke="rgb(0,0,0)" stroke-width="1" opacity="1" d="M 38.5 397 L 106.5 397 L 110.5 398 L 114 401.5 L 115 405.5 L 115 473.5 L 114 477.5 L 110.5 481 L 106.5 482 L 38.5 482 L 34.5 481 L 31 477.5 L 30 473.5 L 30 405.5 L 31 401.5 L 34.5 398 L 38.5 397 Z M 45 412 L 45 467 L 100 467 L 100 412 L 45 412 Z " /><path fill="rgb(0,0,0)" stroke="rgb(0,0,0)" stroke-width="1" opacity="1" d="M 233.5 407 L 458.5 407 L 462.5 408 L 465 410.5 L 466 416.5 L 462.5 421 L 458.5 422 L 233.5 422 L 229.5 421 L 227 418.5 L 226 412.5 L 229.5 408 L 233.5 407 Z " /><path fill="rgb(0,0,0)" stroke="rgb(0,0,0)" stroke-width="1" opacity="1" d="M 233.5 457 L 345.5 457 L 352 460.5 L 353 466.5 L 350.5 470 L 345.5 472 L 233.5 472 L 229.5 471 L 227 468.5 L 226 462.5 L 229.5 458 L 233.5 457 Z " /><path fill="rgb(0,0,0)" stroke="rgb(0,0,0)" stroke-width="1" opacity="0.5058823529411764" d="M 350.5 91 L 351.5 93 L 350.5 91 Z " /><path fill="rgb(0,0,0)" stroke="rgb(0,0,0)" stroke-width="1" opacity="0.5058823529411764" d="M 353.5 96 L 354 98.5 L 353 98.5 L 353.5 96 Z " /><path fill="rgb(0,0,0)" stroke="rgb(0,0,0)" stroke-width="1" opacity="0.5058823529411764" d="M 351.5 102 L 350.5 104 L 351.5 102 Z " /><path fill="rgb(0,0,0)" stroke="rgb(0,0,0)" stroke-width="1" opacity="0.5058823529411764" d="M 25.5 183 L 120 183.5 L 25.5 184 L 25.5 183 Z " /><path fill="rgb(0,0,0)" stroke="rgb(0,0,0)" stroke-width="1" opacity="0.5058823529411764" d="M 205.5 183 L 487 183.5 L 205.5 184 L 205.5 183 Z " /><path fill="rgb(0,0,0)" stroke="rgb(0,0,0)" stroke-width="1" opacity="0.5058823529411764" d="M 138.5 193 L 139.5 195 L 138.5 193 Z " /><path fill="rgb(0,0,0)" stroke="rgb(0,0,0)" stroke-width="1" opacity="0.5058823529411764" d="M 505.5 193 L 506.5 195 L 505.5 193 Z " /><path fill="rgb(0,0,0)" stroke="rgb(0,0,0)" stroke-width="1" opacity="0.5058823529411764" d="M 26.5 198 L 119 198.5 L 26.5 199 L 26.5 198 Z " /><path fill="rgb(0,0,0)" stroke="rgb(0,0,0)" stroke-width="1" opacity="0.5058823529411764" d="M 206.5 198 L 486 198.5 L 206.5 199 L 206.5 198 Z " /><path fill="rgb(0,0,0)" stroke="rgb(0,0,0)" stroke-width="1" opacity="0.5058823529411764" d="M 19.5 201 L 17.5 204 L 19.5 201 Z " /><path fill="rgb(0,0,0)" stroke="rgb(0,0,0)" stroke-width="1" opacity="0.5058823529411764" d="M 125.5 201 L 127.5 204 L 125.5 201 Z " /><path fill="rgb(0,0,0)" stroke="rgb(0,0,0)" stroke-width="1" opacity="0.5058823529411764" d="M 199.5 201 L 197.5 204 L 199.5 201 Z " /><path fill="rgb(0,0,0)" stroke="rgb(0,0,0)" stroke-width="1" opacity="0.5058823529411764" d="M 492.5 201 L 494.5 204 L 492.5 201 Z " /><path fill="rgb(0,0,0)" stroke="rgb(0,0,0)" stroke-width="1" opacity="0.5058823529411764" d="M 36.5 213 L 109 213.5 L 36.5 214 L 36.5 213 Z " /><path fill="rgb(0,0,0)" stroke="rgb(0,0,0)" stroke-width="1" opacity="0.5058823529411764" d="M 32.5 215 L 31.5 217 L 32.5 215 Z " /><path fill="rgb(0,0,0)" stroke="rgb(0,0,0)" stroke-width="1" opacity="0.5058823529411764" d="M 112.5 215 L 113.5 217 L 112.5 215 Z " /><path fill="rgb(0,0,0)" stroke="rgb(0,0,0)" stroke-width="1" opacity="0.5058823529411764" d="M 231.5 223 L 461 223.5 L 231.5 224 L 231.5 223 Z " /><path fill="rgb(0,0,0)" stroke="rgb(0,0,0)" stroke-width="1" opacity="0.5058823529411764" d="M 45.5 228 L 100 228.5 L 45.5 229 L 45.5 228 Z " /><path fill="rgb(0,0,0)" stroke="rgb(0,0,0)" stroke-width="1" opacity="0.5058823529411764" d="M 231.5 238 L 461 238.5 L 231.5 239 L 231.5 238 Z " /><path fill="rgb(0,0,0)" stroke="rgb(0,0,0)" stroke-width="1" opacity="0.5058823529411764" d="M 231.5 273 L 347 273.5 L 231.5 274 L 231.5 273 Z " /><path fill="rgb(0,0,0)" stroke="rgb(0,0,0)" stroke-width="1" opacity="0.5058823529411764" d="M 45.5 283 L 100 283.5 L 45.5 284 L 45.5 283 Z " /><path fill="rgb(0,0,0)" stroke="rgb(0,0,0)" stroke-width="1" opacity="0.5058823529411764" d="M 231.5 288 L 347 288.5 L 231.5 289 L 231.5 288 Z " /><path fill="rgb(0,0,0)" stroke="rgb(0,0,0)" stroke-width="1" opacity="0.5058823529411764" d="M 31.5 295 L 32.5 297 L 31.5 295 Z " /><path fill="rgb(0,0,0)" stroke="rgb(0,0,0)" stroke-width="1" opacity="0.5058823529411764" d="M 113.5 295 L 112.5 297 L 113.5 295 Z " /><path fill="rgb(0,0,0)" stroke="rgb(0,0,0)" stroke-width="1" opacity="0.5058823529411764" d="M 36.5 298 L 109 298.5 L 36.5 299 L 36.5 298 Z " /><path fill="rgb(0,0,0)" stroke="rgb(0,0,0)" stroke-width="1" opacity="0.5058823529411764" d="M 17.5 308 L 19.5 311 L 17.5 308 Z " /><path fill="rgb(0,0,0)" stroke="rgb(0,0,0)" stroke-width="1" opacity="0.5058823529411764" d="M 127.5 308 L 125.5 311 L 127.5 308 Z " /><path fill="rgb(0,0,0)" stroke="rgb(0,0,0)" stroke-width="1" opacity="0.5058823529411764" d="M 197.5 308 L 199.5 311 L 197.5 308 Z " /><path fill="rgb(0,0,0)" stroke="rgb(0,0,0)" stroke-width="1" opacity="0.5058823529411764" d="M 494.5 308 L 492.5 311 L 494.5 308 Z " /><path fill="rgb(0,0,0)" stroke="rgb(0,0,0)" stroke-width="1" opacity="0.5058823529411764" d="M 26.5 313 L 119 313.5 L 26.5 314 L 26.5 313 Z " /><path fill="rgb(0,0,0)" stroke="rgb(0,0,0)" stroke-width="1" opacity="0.5058823529411764" d="M 206.5 313 L 486 313.5 L 206.5 314 L 206.5 313 Z " /><path fill="rgb(0,0,0)" stroke="rgb(0,0,0)" stroke-width="1" opacity="0.5058823529411764" d="M 139.5 317 L 138.5 319 L 139.5 317 Z " /><path fill="rgb(0,0,0)" stroke="rgb(0,0,0)" stroke-width="1" opacity="0.5058823529411764" d="M 506.5 317 L 505.5 319 L 506.5 317 Z " /><path fill="rgb(0,0,0)" stroke="rgb(0,0,0)" stroke-width="1" opacity="0.5058823529411764" d="M 25.5 328 L 120 328.5 L 25.5 329 L 25.5 328 Z " /><path fill="rgb(0,0,0)" stroke="rgb(0,0,0)" stroke-width="1" opacity="0.5058823529411764" d="M 205.5 328 L 487 328.5 L 205.5 329 L 205.5 328 Z " /><path fill="rgb(0,0,0)" stroke="rgb(0,0,0)" stroke-width="1" opacity="0.5058823529411764" d="M 8.5 374 L 7.5 376 L 8.5 374 Z " /><path fill="rgb(0,0,0)" stroke="rgb(0,0,0)" stroke-width="1" opacity="0.5058823529411764" d="M 350.5 458 L 351.5 460 L 350.5 458 Z " /><path fill="rgb(0,0,0)" stroke="rgb(0,0,0)" stroke-width="1" opacity="0.5058823529411764" d="M 353.5 463 L 354 465.5 L 353 465.5 L 353.5 463 Z " /><path fill="rgb(0,0,0)" stroke="rgb(0,0,0)" stroke-width="1" opacity="0.5058823529411764" d="M 351.5 469 L 350.5 471 L 351.5 469 Z " /><path fill="rgb(0,0,0)" stroke="rgb(0,0,0)" stroke-width="1" opacity="0.1803921568627451" d="M 10.5 5 L 8.5 8 L 10.5 5 Z " /><path fill="rgb(0,0,0)" stroke="rgb(0,0,0)" stroke-width="1" opacity="0.1803921568627451" d="M 134.5 5 L 135.5 7 L 134.5 5 Z " /><path fill="rgb(0,0,0)" stroke="rgb(0,0,0)" stroke-width="1" opacity="0.1803921568627451" d="M 190.5 5 L 188.5 8 L 190.5 5 Z " /><path fill="rgb(0,0,0)" stroke="rgb(0,0,0)" stroke-width="1" opacity="0.1803921568627451" d="M 501.5 5 L 502.5 7 L 501.5 5 Z " /><path fill="rgb(0,0,0)" stroke="rgb(0,0,0)" stroke-width="1" opacity="0.1803921568627451" d="M 137.5 8 L 139.5 11 L 137.5 8 Z " /><path fill="rgb(0,0,0)" stroke="rgb(0,0,0)" stroke-width="1" opacity="0.1803921568627451" d="M 504.5 8 L 506.5 11 L 504.5 8 Z " /><path fill="rgb(0,0,0)" stroke="rgb(0,0,0)" stroke-width="1" opacity="0.1803921568627451" d="M 6.5 9 L 5.5 11 L 6.5 9 Z " /><path fill="rgb(0,0,0)" stroke="rgb(0,0,0)" stroke-width="1" opacity="0.1803921568627451" d="M 186.5 9 L 185.5 11 L 186.5 9 Z " /><path fill="rgb(0,0,0)" stroke="rgb(0,0,0)" stroke-width="1" opacity="0.1803921568627451" d="M 32.5 31 L 31.5 33 L 32.5 31 Z " /><path fill="rgb(0,0,0)" stroke="rgb(0,0,0)" stroke-width="1" opacity="0.1803921568627451" d="M 112.5 31 L 113.5 33 L 112.5 31 Z " /><path fill="rgb(0,0,0)" stroke="rgb(0,0,0)" stroke-width="1" opacity="0.1803921568627451" d="M 31.5 112 L 32.5 114 L 31.5 112 Z " /><path fill="rgb(0,0,0)" stroke="rgb(0,0,0)" stroke-width="1" opacity="0.1803921568627451" d="M 113.5 112 L 112.5 114 L 113.5 112 Z " /><path fill="rgb(0,0,0)" stroke="rgb(0,0,0)" stroke-width="1" opacity="0.1803921568627451" d="M 127.5 124 L 124.5 128 L 127.5 124 Z " /><path fill="rgb(0,0,0)" stroke="rgb(0,0,0)" stroke-width="1" opacity="0.1803921568627451" d="M 494.5 124 L 491.5 128 L 494.5 124 Z " /><path fill="rgb(0,0,0)" stroke="rgb(0,0,0)" stroke-width="1" opacity="0.1803921568627451" d="M 410.5 131 L 409.5 133 L 410.5 131 Z " /><path fill="rgb(0,0,0)" stroke="rgb(0,0,0)" stroke-width="1" opacity="0.1803921568627451" d="M 5.5 134 L 10.5 140 L 5.5 134 Z " /><path fill="rgb(0,0,0)" stroke="rgb(0,0,0)" stroke-width="1" opacity="0.1803921568627451" d="M 139.5 134 L 137.5 137 L 139.5 134 Z " /><path fill="rgb(0,0,0)" stroke="rgb(0,0,0)" stroke-width="1" opacity="0.1803921568627451" d="M 185.5 134 L 190.5 140 L 185.5 134 Z " /><path fill="rgb(0,0,0)" stroke="rgb(0,0,0)" stroke-width="1" opacity="0.1803921568627451" d="M 506.5 134 L 501.5 140 L 506.5 134 Z " /><path fill="rgb(0,0,0)" stroke="rgb(0,0,0)" stroke-width="1" opacity="0.1803921568627451" d="M 135.5 138 L 134.5 140 L 135.5 138 Z " /><path fill="rgb(0,0,0)" stroke="rgb(0,0,0)" stroke-width="1" opacity="0.1803921568627451" d="M 409.5 142 L 410.5 144 L 409.5 142 Z " /><path fill="rgb(0,0,0)" stroke="rgb(0,0,0)" stroke-width="1" opacity="0.1803921568627451" d="M 84.5 368 L 85.5 370 L 84.5 368 Z " /><path fill="rgb(0,0,0)" stroke="rgb(0,0,0)" stroke-width="1" opacity="0.1803921568627451" d="M 102.5 368 L 101.5 370 L 102.5 368 Z " /><path fill="rgb(0,0,0)" stroke="rgb(0,0,0)" stroke-width="1" opacity="0.1803921568627451" d="M 10.5 372 L 9.5 374 L 10.5 372 Z " /><path fill="rgb(0,0,0)" stroke="rgb(0,0,0)" stroke-width="1" opacity="0.1803921568627451" d="M 134.5 372 L 139.5 378 L 134.5 372 Z " /><path fill="rgb(0,0,0)" stroke="rgb(0,0,0)" stroke-width="1" opacity="0.1803921568627451" d="M 190.5 372 L 188.5 375 L 190.5 372 Z " /><path fill="rgb(0,0,0)" stroke="rgb(0,0,0)" stroke-width="1" opacity="0.1803921568627451" d="M 501.5 372 L 502.5 374 L 501.5 372 Z " /><path fill="rgb(0,0,0)" stroke="rgb(0,0,0)" stroke-width="1" opacity="0.1803921568627451" d="M 504.5 375 L 506.5 378 L 504.5 375 Z " /><path fill="rgb(0,0,0)" stroke="rgb(0,0,0)" stroke-width="1" opacity="0.1803921568627451" d="M 6.5 376 L 5.5 378 L 6.5 376 Z " /><path fill="rgb(0,0,0)" stroke="rgb(0,0,0)" stroke-width="1" opacity="0.1803921568627451" d="M 186.5 376 L 185.5 378 L 186.5 376 Z " /><path fill="rgb(0,0,0)" stroke="rgb(0,0,0)" stroke-width="1" opacity="0.1803921568627451" d="M 85.5 379 L 84.5 381 L 85.5 379 Z " /><path fill="rgb(0,0,0)" stroke="rgb(0,0,0)" stroke-width="1" opacity="0.1803921568627451" d="M 101.5 379 L 102.5 381 L 101.5 379 Z " /><path fill="rgb(0,0,0)" stroke="rgb(0,0,0)" stroke-width="1" opacity="0.1803921568627451" d="M 32.5 398 L 31.5 400 L 32.5 398 Z " /><path fill="rgb(0,0,0)" stroke="rgb(0,0,0)" stroke-width="1" opacity="0.1803921568627451" d="M 112.5 398 L 113.5 400 L 112.5 398 Z " /><path fill="rgb(0,0,0)" stroke="rgb(0,0,0)" stroke-width="1" opacity="0.1803921568627451" d="M 31.5 479 L 32.5 481 L 31.5 479 Z " /><path fill="rgb(0,0,0)" stroke="rgb(0,0,0)" stroke-width="1" opacity="0.1803921568627451" d="M 113.5 479 L 112.5 481 L 113.5 479 Z " /><path fill="rgb(0,0,0)" stroke="rgb(0,0,0)" stroke-width="1" opacity="0.1803921568627451" d="M 127.5 491 L 124.5 495 L 127.5 491 Z " /><path fill="rgb(0,0,0)" stroke="rgb(0,0,0)" stroke-width="1" opacity="0.1803921568627451" d="M 494.5 491 L 491.5 495 L 494.5 491 Z " /><path fill="rgb(0,0,0)" stroke="rgb(0,0,0)" stroke-width="1" opacity="0.1803921568627451" d="M 5.5 501 L 10.5 507 L 5.5 501 Z " /><path fill="rgb(0,0,0)" stroke="rgb(0,0,0)" stroke-width="1" opacity="0.1803921568627451" d="M 139.5 501 L 137.5 504 L 139.5 501 Z " /><path fill="rgb(0,0,0)" stroke="rgb(0,0,0)" stroke-width="1" opacity="0.1803921568627451" d="M 185.5 501 L 190.5 507 L 185.5 501 Z " /><path fill="rgb(0,0,0)" stroke="rgb(0,0,0)" stroke-width="1" opacity="0.1803921568627451" d="M 506.5 501 L 504.5 504 L 506.5 501 Z " /><path fill="rgb(0,0,0)" stroke="rgb(0,0,0)" stroke-width="1" opacity="0.1803921568627451" d="M 135.5 505 L 134.5 507 L 135.5 505 Z " /><path fill="rgb(0,0,0)" stroke="rgb(0,0,0)" stroke-width="1" opacity="0.1803921568627451" d="M 502.5 505 L 501.5 507 L 502.5 505 Z " /></svg>